<svg xmlns="http://www.w3.org/2000/svg" viewBox="0 0 512 512" id="email"><path fill="#fff" d="m399.556 163.521 66.993 78.123-66.993 55.384zM466.549 480.905H55.021l205.764-153.127 205.764 153.127z"></path><path fill="#a4c2f7" d="M466.549 241.644v239.26L314.246 367.562l152.303-125.918zM207.325 367.562 55.021 480.905v-239.26l152.304 125.917z"></path><path fill="#fff" d="M122.014 164.603v132.425l-66.993-55.384zM399.556 297.028l-85.311 70.534-53.46-39.784-53.46 39.784-85.311-70.534V50.236h277.542v246.792z"></path><circle cx="476.119" cy="174.652" r="9.57" fill="#418cfe"></circle><path fill="#418cfe" d="M461.764 50.236c7.924 0 14.356 6.431 14.356 14.356s-6.431 14.356-14.356 14.356c-7.924 0-14.356-6.431-14.356-14.356s6.431-14.356 14.356-14.356z"></path><circle cx="64.592" cy="31.095" r="9.57" fill="#418cfe"></circle><path fill="#418cfe" d="M40.666 126.799c7.924 0 14.356 6.431 14.356 14.356s-6.431 14.356-14.356 14.356-14.356-6.431-14.356-14.356 6.432-14.356 14.356-14.356zM207.32 377.133a9.532 9.532 0 0 1-6.093-2.194L48.924 249.02c-4.074-3.367-4.646-9.4-1.278-13.474s9.401-4.645 13.474-1.278l152.304 125.918c4.074 3.368 4.645 9.4 1.278 13.474a9.552 9.552 0 0 1-7.382 3.473zm106.931 0a9.57 9.57 0 0 1-6.104-16.946L460.45 234.269c4.076-3.367 10.107-2.796 13.474 1.278 3.368 4.074 2.795 10.106-1.278 13.474L320.344 374.938a9.533 9.533 0 0 1-6.093 2.195z"></path><path fill="#418cfe" d="M466.549 490.475c-5.285 0-9.57-4.285-9.57-9.57V245.186l-64.687-75.435c-3.441-4.012-2.978-10.055 1.035-13.495 4.012-3.44 10.056-2.977 13.495 1.035l66.993 78.123a9.57 9.57 0 0 1 2.306 6.23v239.26c-.002 5.286-4.287 9.571-9.572 9.571zm-411.528 0a9.57 9.57 0 0 1-9.57-9.57v-239.26a9.57 9.57 0 0 1 2.349-6.28l66.993-77.042c3.468-3.987 9.513-4.41 13.502-.942 3.988 3.468 4.41 9.513.942 13.502l-64.644 74.341v235.681a9.572 9.572 0 0 1-9.572 9.57z"></path><path fill="#418cfe" d="M466.549 490.475H55.021a9.57 9.57 0 0 1-5.714-17.248L255.071 320.1a9.572 9.572 0 0 1 11.427 0l205.764 153.127a9.571 9.571 0 0 1-5.713 17.248zM83.912 471.334h353.746L260.785 339.707 83.912 471.334zm315.644-164.735c-5.285 0-9.57-4.285-9.57-9.57V59.807H131.585v237.222c0 5.285-4.285 9.57-9.57 9.57a9.57 9.57 0 0 1-9.57-9.57V50.236a9.57 9.57 0 0 1 9.57-9.57h277.542c5.285 0 9.57 4.285 9.57 9.57v246.792c0 5.286-4.286 9.571-9.571 9.571z"></path><path fill="#418cfe" d="M275.141 126.799H169.866a9.57 9.57 0 0 1-9.57-9.57 9.57 9.57 0 0 1 9.57-9.57H275.14c5.285 0 9.57 4.285 9.57 9.57.001 5.286-4.284 9.57-9.569 9.57zm76.563 47.853H169.866a9.57 9.57 0 0 1-9.57-9.57 9.57 9.57 0 0 1 9.57-9.57h181.838c5.285 0 9.57 4.285 9.57 9.57s-4.285 9.57-9.57 9.57zm0 47.852H169.866c-5.286 0-9.57-4.285-9.57-9.57s4.285-9.57 9.57-9.57h181.838c5.285 0 9.57 4.285 9.57 9.57s-4.285 9.57-9.57 9.57zm0 47.852H169.866a9.57 9.57 0 0 1-9.57-9.57 9.57 9.57 0 0 1 9.57-9.57h181.838c5.285 0 9.57 4.285 9.57 9.57 0 5.284-4.285 9.57-9.57 9.57zm-9.57 181.837H189.007c-5.286 0-9.57-4.285-9.57-9.57s4.285-9.57 9.57-9.57h153.127c5.285 0 9.57 4.285 9.57 9.57s-4.285 9.57-9.57 9.57zm-47.852-38.281H236.86a9.57 9.57 0 0 1-9.57-9.57c0-5.285 4.285-9.57 9.57-9.57h57.422c5.285 0 9.57 4.285 9.57 9.57s-4.285 9.57-9.57 9.57z"></path></svg>