<svg xmlns="http://www.w3.org/2000/svg" viewBox="0 0 48 48" id="phone"><path fill="#0ca0f2" d="M42.455,31.235l-2.267-2.267c-.996-.996-2.321-1.545-3.729-1.545s-2.734.549-3.729,1.545l-1.3,1.3c-1.1,1.1-2.837,1.271-4.132.409-3.972-2.648-7.328-6.004-9.975-9.975-.863-1.294-.691-3.032.409-4.132l1.3-1.3c.996-.996,1.545-2.32,1.545-3.729s-.548-2.733-1.545-3.729l-2.267-2.267c-2.057-2.057-5.402-2.057-7.459,0l-2.509,2.509c-1.974,1.974-2.982,4.701-2.769,7.484.312,4.051,1.765,7.911,4.204,11.162,3.716,4.955,8.113,9.352,13.068,13.068,3.252,2.438,7.112,3.893,11.162,4.203.246.019.491.028.736.028,2.523,0,4.95-.998,6.749-2.797l2.509-2.509c.996-.996,1.545-2.32,1.545-3.729s-.549-2.733-1.545-3.729Z"></path><path fill="#0588e2" d="M40.188,28.969c-.996-.996-2.321-1.545-3.729-1.545s-2.734.549-3.729,1.545l-1.3,1.3c-1.1,1.1-2.837,1.271-4.132.409-.146-.098-.286-.203-.431-.303-3.436,1.054-7.085,1.625-10.867,1.625-1.177,0-2.339-.061-3.488-.169,2.68,2.902,5.618,5.56,8.788,7.937,3.252,2.438,7.112,3.893,11.162,4.203.246.019.491.028.736.028,2.523,0,4.95-.998,6.749-2.797l2.509-2.509c.996-.996,1.545-2.32,1.545-3.729s-.549-2.733-1.545-3.729l-2.267-2.267Z"></path><path fill="#0075d3" d="M40.188,28.969c-.996-.996-2.321-1.545-3.729-1.545-1.352,0-2.618.517-3.598,1.437l9.702,9.702c.92-.981,1.437-2.247,1.437-3.598,0-1.409-.549-2.733-1.545-3.729l-2.267-2.267Z"></path><path fill="#0588e2" d="M16.765,5.545c-2.016-2.016-5.262-2.043-7.327-.108l9.702,9.702c.92-.981,1.437-2.247,1.437-3.598,0-1.409-.548-2.733-1.545-3.729l-2.267-2.267Z"></path></svg>